<svg width="780" height="611" viewBox="0 0 780 611" fill="none" xmlns="http://www.w3.org/2000/svg">
<g id="Frame 1">
<rect width="780" height="611" fill="white"/>
<g id="undraw_newspaper_re_syf5 1">
<g id="Group">
<path id="Vector" d="M627.312 437.292H620.082V458.323H627.312V437.292Z" fill="#F2F2F2"/>
<path id="Vector_2" d="M663.967 453.47H583.431C577.444 453.47 572.59 448.716 572.59 442.851C572.59 436.987 577.444 432.233 583.431 432.233H663.967C669.955 432.233 674.809 436.987 674.809 442.851C674.809 448.716 669.955 453.47 663.967 453.47Z" fill="#F2F2F2"/>
<path id="Vector_3" d="M670.163 453.47C675.01 453.47 678.939 449.621 678.939 444.874V342.731C678.939 337.984 675.01 334.135 670.163 334.135C665.315 334.135 661.386 337.984 661.386 342.731C634.73 362.712 645.564 402.477 661.386 444.874C661.386 449.621 665.315 453.47 670.163 453.47V453.47Z" fill="#F2F2F2"/>
<path id="Vector_4" d="M659.404 408.575C658.212 413.804 655.967 417.934 653.148 421.189C647.408 427.843 639.273 430.862 632.857 432.231C627.094 433.466 622.717 433.365 622.717 433.365L595.62 435.553L574.206 437.281L552.689 439.021C553.915 444.071 555.084 449.873 556.195 456.078C556.321 456.819 556.459 457.571 556.596 458.323H512.897L512.164 456.078L507.673 442.443L498.564 422.95C496.903 419.775 496.067 416.307 496.067 412.817C496.067 410.494 496.445 408.182 497.189 405.938C497.201 405.904 497.201 405.87 497.212 405.837C498.965 400.652 503.296 396.679 508.658 395.097L515.132 393.178C533.487 388.981 559.208 382.438 578.824 377.366C595.208 373.124 607.318 369.892 607.318 369.892L607.353 369.668L610.744 346.954L644.555 344.047L655.543 343.093C655.543 343.093 655.302 344.216 655.394 348.244C655.394 348.491 655.394 348.749 655.405 349.007C655.428 349.793 655.463 350.691 655.508 351.69C655.52 352.026 655.543 352.374 655.566 352.733C655.6 353.429 655.646 354.17 655.703 354.966C655.703 355.023 655.703 355.079 655.715 355.135C655.772 356.134 655.852 357.222 655.955 358.389C655.978 358.872 656.024 359.366 656.07 359.87C656.287 362.418 656.562 365.336 656.918 368.657C656.941 368.994 656.975 369.331 657.021 369.667C657.067 370.195 657.124 370.722 657.181 371.261C657.296 372.204 657.399 373.169 657.513 374.179C657.525 374.28 657.536 374.37 657.548 374.471C657.651 375.357 657.766 376.266 657.869 377.209C657.995 378.23 658.121 379.274 658.258 380.34C658.338 381.058 658.43 381.799 658.533 382.562C658.579 382.921 658.625 383.291 658.671 383.662C658.728 384.054 658.774 384.458 658.831 384.862C658.923 385.581 659.014 386.321 659.117 387.073C659.335 388.745 659.576 390.473 659.816 392.269C660.699 398.632 660.447 404.03 659.404 408.575L659.404 408.575Z" fill="#2F2E41"/>
<path id="Vector_5" d="M659.404 408.575L650.547 412.323L603.469 432.231L595.62 435.553L576.349 443.7C576.899 446.54 577.483 449.345 578.113 452.106C578.411 453.441 578.709 454.765 579.03 456.078C579.213 456.83 579.385 457.571 579.58 458.323H540.579L540.281 456.078L539.146 447.291C536.889 445.316 535.56 441.534 534.758 437.517C533.956 433.511 533.67 429.235 533.475 426.272C533.475 426.239 533.475 426.194 533.464 426.16C533.143 420.684 544.062 417.048 548.427 413.636L553.789 411.897C564.868 404.367 581.333 392.965 597.27 381.888C603.308 377.691 609.277 373.539 614.834 369.668C632.112 357.615 645.563 348.199 645.563 348.199L644.555 344.047L655.543 343.093C655.543 343.093 655.302 344.216 655.394 348.244C655.394 348.491 655.394 348.749 655.405 349.007C655.428 349.804 655.463 350.691 655.508 351.69C655.52 352.026 655.543 352.374 655.566 352.733C655.6 353.429 655.646 354.17 655.703 354.966C655.703 355.023 655.703 355.079 655.715 355.135C655.772 356.134 655.852 357.222 655.955 358.389C655.978 358.872 656.024 359.366 656.07 359.87C656.276 362.418 656.551 365.325 656.918 368.657C656.94 368.994 656.975 369.331 657.021 369.668C657.067 370.195 657.124 370.722 657.181 371.261C657.296 372.204 657.399 373.18 657.513 374.179C657.525 374.28 657.536 374.37 657.548 374.471C657.651 375.357 657.765 376.266 657.869 377.209C657.995 378.23 658.121 379.274 658.258 380.34C658.35 381.069 658.441 381.81 658.533 382.562C658.579 382.921 658.625 383.291 658.671 383.662C658.728 384.054 658.774 384.458 658.831 384.862C658.923 385.581 659.014 386.321 659.117 387.073C659.335 388.745 659.576 390.473 659.816 392.269C660.699 398.632 660.446 404.03 659.404 408.575V408.575Z" fill="#2F2E41"/>
<path id="Vector_6" d="M666.455 354.622C668.254 362.152 667.532 367.314 666.822 374.676C666.558 377.392 667.463 381.297 664.771 383.126C662.468 384.664 579.619 383.934 578.851 377.65C577.981 370.546 579.676 363.095 583.217 356.687C589.621 345.083 593.288 330.876 595.167 320.787C599.143 299.588 590.183 288.074 593.528 266.932C594.101 263.329 594.216 259.918 594.078 256.652C593.62 245.306 590.045 235.678 591.18 225.903C591.649 221.886 592.91 217.846 595.511 213.649C596.278 212.403 597.16 211.146 598.18 209.878C604.092 202.494 605.639 196.927 615.905 196.939C617.475 196.939 619.147 196.838 620.843 196.759C623.558 196.613 626.331 196.512 628.783 196.939C634.672 197.96 633.366 201.585 637.17 205.557L638.636 206.994C642.303 209.822 645.477 212.033 648.685 215.444C655.124 222.29 662.766 229.988 666.558 238.539C669.125 244.341 667.566 253.207 667.498 259.536C667.418 267.672 664.851 274.507 662.709 282.261C660.841 288.994 660.348 296.064 659.077 302.944C657.438 311.843 655.949 320.618 655.193 329.585C654.608 336.621 664.737 324.984 664.759 332.031C664.782 339.337 664.759 347.552 666.455 354.622L666.455 354.622Z" fill="#3F3D56"/>
<g id="Group_2">
<path id="Vector_7" d="M522.942 219.084L548.456 223.558L547.88 238.19L521.078 232.52C520.347 232.921 519.546 233.226 518.685 233.411C514.004 234.413 509.38 231.508 508.357 226.924C507.334 222.339 510.299 217.81 514.98 216.808C517.965 216.169 520.923 217.123 522.943 219.084H522.942V219.084Z" fill="#FFB6B6"/>
<path id="Vector_8" d="M625.128 253.431C624.005 255.676 622.264 257.617 620.03 259.031C616.73 261.118 612.857 261.691 609.271 260.928C608.836 260.838 607.358 260.434 605.089 259.783C604.699 259.671 604.287 259.559 603.852 259.435C601.274 258.706 597.917 257.741 594.078 256.652C590.275 255.563 585.967 254.34 581.51 253.083L581.487 253.095C580.135 252.691 578.737 252.298 577.351 251.905H577.328C566.959 249.021 556.108 246.081 548.203 244.195C547.836 244.094 545.934 245.879 545.579 245.789C545.029 245.654 544.926 243.601 544.41 243.477C543.299 243.208 541.844 244.902 540.927 244.678C537.593 243.881 536.264 236.935 536.264 236.935L536.413 235.767L538.086 221.74L538.109 221.493L547.538 218.586L550.678 221.56L555.031 219.787L559.087 222.761L567.371 223.569L570.946 223.928L571.186 223.939L591.18 225.903L597.069 226.487C596.599 224.153 596.232 221.841 595.969 219.563C595.9 218.923 595.831 218.295 595.786 217.666L595.774 217.655C595.648 216.308 595.568 214.984 595.511 213.648C596.278 212.403 597.16 211.146 598.18 209.878C604.092 202.494 605.639 196.927 615.905 196.939C617.475 196.939 619.147 196.838 620.843 196.759L623.49 219.72L626.4 244.97L626.492 245.789C626.789 248.482 626.297 251.119 625.128 253.431L625.128 253.431Z" fill="#3F3D56"/>
</g>
<path id="Vector_9" d="M575.582 211.803C574.276 210.883 572.603 210.715 571.125 211.354L526.601 230.578C522.545 232.328 517.962 232.643 513.7 231.464L513.047 231.285C514.901 215.151 510.17 197.787 500.879 179.573C499.676 179.416 498.473 179.73 497.499 180.471C496.353 181.346 495.712 182.67 495.758 184.107L497.156 234.674L497.625 251.462C487.471 263.377 483.799 274.399 498.496 282.896C498.542 284.478 499.424 285.892 500.845 286.655C502.266 287.429 503.95 287.407 505.348 286.599L506.253 286.072L518.478 302.849C519.291 302.535 520.139 302.377 520.998 302.377C522.179 302.377 523.359 302.669 524.413 303.264L546.652 315.799L561.798 324.339C563.15 325.102 564.789 325.136 566.175 324.429C567.561 323.711 568.455 322.375 568.593 320.849L569.017 315.799L570.426 299.19L572.74 271.786L573.84 258.712L574.012 256.759L577.472 215.787C577.61 214.205 576.899 212.712 575.582 211.803V211.803V211.803Z" fill="#F2F2F2"/>
<path id="paper2" d="M579.019 217.414C577.713 216.494 576.04 216.326 574.562 216.965C558.456 229.111 542.881 238.846 530.038 236.189C525.982 237.94 521.4 238.254 517.137 237.075L516.484 236.896C518.338 220.762 513.607 203.398 504.316 185.184C503.113 185.027 501.91 185.341 500.936 186.082C499.791 186.957 499.149 188.281 499.195 189.718L500.593 240.285L501.063 257.073C490.908 268.988 487.236 280.011 501.933 288.507C501.979 290.089 502.861 291.503 504.282 292.266C505.703 293.041 507.387 293.018 508.785 292.21L509.69 291.683L521.915 308.46C522.729 308.146 523.576 307.989 524.436 307.989C525.616 307.989 526.796 308.28 527.85 308.875L550.089 321.41L565.236 329.95C566.588 330.713 568.226 330.747 569.612 330.04C570.999 329.322 571.892 327.987 572.03 326.46L572.454 321.41L573.863 304.801L576.178 277.397L577.277 264.323L577.449 262.37L580.909 221.398C581.047 219.816 580.337 218.323 579.019 217.414Z" fill="#E6E6E6"/>
<path id="Vector_10" d="M570.765 240.174L536.595 248.314L537.083 250.278L571.253 242.139L570.765 240.174Z" fill="white"/>
<path id="Vector_11" d="M570.765 255.344L536.595 263.483L537.083 265.448L571.253 257.309L570.765 255.344Z" fill="white"/>
<path id="Vector_12" d="M536.367 275.203L536.323 277.225L571.481 277.951L571.525 275.929L536.367 275.203Z" fill="white"/>
<path id="Vector_13" d="M536.43 289.738L536.311 291.757L571.417 293.756L571.537 291.737L536.43 289.738Z" fill="white"/>
<path id="Vector_14" d="M534.662 304.2L534.334 306.197L569.056 311.655L569.383 309.659L534.662 304.2Z" fill="white"/>
<path id="Vector_15" d="M429.586 321.412H694.361C696.638 321.412 698.484 326.533 698.484 332.851V358.229C698.484 364.546 696.638 369.668 694.361 369.668H468.542C466.265 369.668 464.419 364.546 464.419 358.229L425.463 332.851C425.463 326.533 427.309 321.412 429.586 321.412H429.586V321.412Z" fill="#EFEFEF"/>
<path id="Vector_16" d="M619.75 159.349C619.567 159.035 619.372 158.732 619.166 158.44C618.971 158.137 618.753 157.846 618.536 157.565C618.433 157.419 618.329 157.284 618.215 157.161C617.184 155.87 616.038 154.827 614.869 154.198C614.789 154.153 614.709 154.109 614.629 154.075C614.445 153.974 614.262 153.895 614.067 153.828C613.712 153.693 613.357 153.592 612.99 153.547C612.818 153.525 612.647 153.514 612.475 153.514C612.349 153.514 612.223 153.525 612.097 153.536C612.028 153.547 611.948 153.559 611.868 153.57C611.776 153.581 611.673 153.604 611.581 153.626C611.478 153.648 611.375 153.682 611.283 153.716C611.192 153.749 611.088 153.783 610.997 153.828C610.894 153.873 610.791 153.918 610.699 153.974C610.596 154.03 610.504 154.086 610.412 154.142C610.309 154.21 610.218 154.277 610.126 154.344C613.632 156.286 617.069 158.351 620.415 160.516C620.209 160.112 619.991 159.731 619.75 159.349V159.349V159.349Z" fill="#3F3D56"/>
<path id="Vector_17" d="M619.75 159.349C619.567 159.035 619.372 158.732 619.166 158.44C618.971 158.137 618.753 157.846 618.536 157.565C618.433 157.419 618.329 157.284 618.215 157.161C617.184 155.87 616.038 154.827 614.869 154.198C614.789 154.153 614.709 154.109 614.629 154.075C614.445 153.974 614.262 153.895 614.067 153.828C613.712 153.693 613.357 153.592 612.99 153.547C612.818 153.525 612.647 153.514 612.475 153.514C612.349 153.514 612.223 153.525 612.097 153.536C612.028 153.547 611.948 153.559 611.868 153.57C611.776 153.581 611.673 153.604 611.581 153.626C611.478 153.648 611.375 153.682 611.283 153.716C611.192 153.749 611.088 153.783 610.997 153.828C610.894 153.873 610.791 153.918 610.699 153.974C610.596 154.03 610.504 154.086 610.412 154.142C610.309 154.21 610.218 154.277 610.126 154.344C613.632 156.286 617.069 158.351 620.415 160.516C620.209 160.112 619.991 159.731 619.75 159.349V159.349V159.349Z" fill="#3F3D56"/>
<path id="Vector_18" d="M677.003 129.509H305.999V131.754H522.339C544.303 131.754 565.327 135.637 584.759 142.752H584.771C587.44 143.728 590.064 144.76 592.665 145.86C598.669 148.374 604.489 151.213 610.126 154.344C613.632 156.286 617.069 158.351 620.415 160.516C627.564 165.129 634.347 170.235 640.717 175.79L640.729 175.801C641.015 176.037 641.29 176.272 641.565 176.531C677.874 208.503 700.709 254.873 700.709 306.461V432.857C700.709 445.403 690.557 455.615 678.939 443.798C678.676 443.529 678.412 443.26 678.149 442.968H456.092V458.32H677.003C691.336 458.32 703 446.896 703 432.857V154.973C703 140.934 691.336 129.509 677.003 129.509H677.003V129.509Z" fill="#3F3D56"/>
<path id="Vector_19" d="M619.75 159.349C619.567 159.035 619.372 158.732 619.166 158.44C618.971 158.137 618.753 157.846 618.536 157.565C618.433 157.419 618.329 157.284 618.215 157.161C617.184 155.87 616.038 154.827 614.869 154.198C614.789 154.153 614.709 154.109 614.629 154.075C614.445 153.974 614.262 153.895 614.067 153.828C613.712 153.693 613.357 153.592 612.99 153.547C612.818 153.525 612.647 153.514 612.475 153.514C612.349 153.514 612.223 153.525 612.097 153.536C612.028 153.547 611.948 153.559 611.868 153.57C611.776 153.581 611.673 153.604 611.581 153.626C611.478 153.648 611.375 153.682 611.283 153.716C611.192 153.749 611.088 153.783 610.997 153.828C610.894 153.873 610.791 153.918 610.699 153.974C610.596 154.03 610.504 154.086 610.412 154.142C610.309 154.21 610.218 154.277 610.126 154.344C613.632 156.286 617.069 158.351 620.415 160.516C620.209 160.112 619.991 159.731 619.75 159.349V159.349V159.349Z" fill="#3F3D56"/>
<path id="Vector_20" d="M619.75 159.349C619.567 159.035 619.372 158.732 619.166 158.44C618.971 158.137 618.753 157.846 618.536 157.565C618.433 157.419 618.329 157.284 618.215 157.161C617.184 155.87 616.038 154.827 614.869 154.198C614.789 154.153 614.709 154.109 614.629 154.075C614.445 153.974 614.262 153.895 614.067 153.828C613.712 153.693 613.357 153.592 612.99 153.547C612.818 153.525 612.647 153.514 612.475 153.514C612.349 153.514 612.223 153.525 612.097 153.536C612.028 153.547 611.948 153.559 611.868 153.57C611.776 153.581 611.673 153.604 611.581 153.626C611.478 153.648 611.375 153.682 611.283 153.716C611.192 153.749 611.088 153.783 610.997 153.828C610.894 153.873 610.791 153.918 610.699 153.974C610.596 154.03 610.504 154.086 610.412 154.142C610.309 154.21 610.218 154.277 610.126 154.344C613.632 156.286 617.069 158.351 620.415 160.516C620.209 160.112 619.991 159.731 619.75 159.349V159.349V159.349Z" fill="#3F3D56"/>
<path id="Vector_21" d="M619.75 159.349C619.567 159.035 619.372 158.732 619.166 158.44C618.971 158.137 618.753 157.846 618.536 157.565C618.433 157.419 618.329 157.284 618.215 157.161C617.184 155.87 616.038 154.827 614.869 154.198C614.789 154.153 614.709 154.109 614.629 154.075C614.445 153.974 614.262 153.895 614.067 153.828C613.712 153.693 613.357 153.592 612.99 153.547C612.818 153.525 612.647 153.514 612.475 153.514C612.349 153.514 612.223 153.525 612.097 153.536C612.028 153.547 611.948 153.559 611.868 153.57C611.776 153.581 611.673 153.604 611.581 153.626C611.478 153.648 611.375 153.682 611.283 153.716C611.192 153.749 611.088 153.783 610.997 153.828C610.894 153.873 610.791 153.918 610.699 153.974C610.596 154.03 610.504 154.086 610.412 154.142C610.309 154.21 610.218 154.277 610.126 154.344C613.632 156.286 617.069 158.351 620.415 160.516C620.209 160.112 619.991 159.731 619.75 159.349V159.349V159.349Z" fill="#3F3D56"/>
<path id="Vector_22" d="M611.393 191.508C612.063 191.587 612.73 191.646 613.394 191.676C615.46 191.787 617.501 191.671 619.468 191.345C625.445 190.406 630.874 187.634 635.064 183.567C639.494 179.277 642.525 173.55 643.344 167.031C645.264 151.643 634.077 137.625 618.366 135.745C602.88 133.88 588.764 144.489 586.511 159.524C586.475 159.757 586.439 159.98 586.413 160.212C584.494 175.61 595.671 189.619 611.393 191.508Z" fill="#FFB6B6"/>
<path id="hairboy" d="M580.05 158.494C584.12 160.465 590.77 154.268 593.317 157.834C593.73 157.063 594.187 156.318 594.638 155.613C595.047 154.983 595.631 153.636 596.308 153.406C595.452 155.428 595.641 158.166 596.529 160.513C600.543 161.982 605.798 158.73 609.514 154.883C615.348 148.851 624.875 164.318 622.623 172.323C625.489 168.894 631.71 170.828 633.818 174.749C635.925 178.659 632.365 181.793 631.604 186.155L637.351 185.44C640.977 181.981 640.723 176.152 643.709 172.143C648.697 165.434 650.629 158.588 646.88 151.664C643.554 145.541 643.243 137.618 637.142 134.088C639.808 132.811 630.328 134.806 632.86 130.645C635.403 126.494 621.846 125.99 620.962 128.214C617.088 123.673 613.18 120.679 608.415 124.317C603.735 127.897 604.219 131.66 598.722 131.323C596.143 131.167 596.426 135.877 594.893 137.93C593.369 139.973 587.443 141.284 587.155 141.066C585.589 139.866 580.264 150.077 580.264 150.077C580.264 150.077 575.947 156.496 580.05 158.494H580.05V158.494Z" fill="#2F2E41"/>
<g id="Group_3">
<path id="backmessageback" d="M508.132 60.9307H449.137C443.924 60.9307 439.685 65.0941 439.685 70.2002V127.983C439.685 128.5 439.731 129.016 439.811 129.509C439.948 130.295 440.178 131.047 440.498 131.754C441.976 134.986 445.299 137.242 449.137 137.242H508.132C511.97 137.242 515.293 134.986 516.771 131.754C517.103 131.047 517.332 130.295 517.458 129.509C517.55 129.016 517.596 128.5 517.596 127.983V70.2002C517.596 65.0941 513.345 60.9307 508.132 60.9307L508.132 60.9307ZM515.522 131.754C514.135 134.369 511.351 136.153 508.132 136.153H449.137C445.918 136.153 443.134 134.369 441.747 131.754C441.369 131.058 441.094 130.306 440.945 129.509C440.842 129.016 440.796 128.5 440.796 127.983V70.2002C440.796 70.0768 440.796 69.9645 440.819 69.8523V69.8411C441.003 65.4869 444.658 62.0193 449.137 62.0193H478.881C489.823 62.0193 499.676 66.6091 506.551 73.926C506.585 73.9709 506.619 74.0046 506.654 74.0382L506.711 74.0943C511.386 79.1219 514.651 85.4512 515.9 92.4426C515.946 92.712 516.003 92.97 516.037 93.2394C516.049 93.2955 516.049 93.3516 516.06 93.3965C516.335 95.1808 516.473 96.9988 516.473 98.8505V127.983C516.473 128.5 516.427 129.016 516.324 129.51C516.175 130.306 515.9 131.058 515.522 131.754V131.754H515.522Z" fill="#E6E6E6"/>
<path id="messageback" d="M516.547 99.0916C516.547 78.5829 497.791 60.6431 477.105 57.4672C450.921 53.4472 426.848 76.049 430.312 99.2126C433.347 119.505 468.907 148.937 478.634 130.775C489.764 109.993 516.547 119.6 516.547 99.0916V99.0916Z" fill="#6C63FF"/>
<g id="Group_4">
<path id="Vector_23" d="M486.489 82.8264H467.446C466.965 82.8264 466.576 83.208 466.576 83.6793C466.576 84.1506 466.965 84.5322 467.446 84.5322H486.489C486.97 84.5322 487.359 84.1506 487.359 83.6793C487.359 83.208 486.97 82.8264 486.489 82.8264Z" fill="white"/>
<path id="Vector_24" d="M486.489 101.018H467.446C466.965 101.018 466.576 101.399 466.576 101.859C466.576 102.331 466.965 102.723 467.446 102.723H486.489C486.97 102.723 487.359 102.331 487.359 101.859C487.359 101.399 486.97 101.018 486.489 101.018Z" fill="white"/>
<path id="Vector_25" d="M496.709 91.9276H457.226C456.745 91.9276 456.356 92.3091 456.356 92.7804C456.356 93.2518 456.745 93.6333 457.226 93.6333H496.709C497.19 93.6333 497.579 93.2518 497.579 92.7804C497.579 92.3091 497.19 91.9276 496.709 91.9276Z" fill="white"/>
</g>
</g>
<g id="Group_5">
<path id="Vector_26" d="M568.413 258.079L591.741 269.143L587.147 283.077L562.908 270.52C562.094 270.713 561.238 270.795 560.359 270.744C555.576 270.469 551.926 266.448 552.206 261.763C552.487 257.079 556.592 253.503 561.375 253.778C564.426 253.954 567.01 255.656 568.413 258.079V258.079V258.079Z" fill="#FFB6B6"/>
<path id="Vector_27" d="M667.894 244.359V244.347C665.695 240.97 662.131 238.467 657.812 237.67L654.558 237.064C646.538 251.72 639.125 266.691 637.738 284.848L603.733 271.774L602.197 271.191L599.115 267.252L594.429 267.802L593.604 266.41V266.399L592.229 264.121L582.353 264.424L582.261 264.637L582.25 264.648L577.438 276.117L577.426 276.129L576.773 277.7L576.315 278.788C576.315 278.788 576.029 281.886 576.727 284.467V284.489C577.071 285.78 577.667 286.936 578.664 287.486C579.489 287.934 581.356 286.689 582.353 287.239C582.811 287.497 582.342 289.517 582.834 289.786C583.155 289.966 585.469 288.754 585.802 288.933C588.437 290.381 591.416 292.087 594.59 293.927C596.205 294.87 597.866 295.835 599.562 296.845C617.23 307.248 638.231 320.333 639.973 321.231C640.099 321.298 640.225 321.354 640.351 321.41C643.513 322.948 647.248 323.329 650.857 322.252C651.613 322.027 652.335 321.747 653.011 321.41C654.26 320.815 655.394 320.041 656.38 319.132C658.648 317.09 660.195 314.329 660.733 311.22L670.106 254.863C670.736 251.069 669.854 247.366 667.894 244.359V244.359Z" fill="#3F3D56"/>
</g>
<path id="Vector_28" d="M491.885 296.563C490.808 292.276 487.589 289.1 483.831 288.135C482.33 287.731 480.737 287.686 479.156 288.068C477.46 288.472 475.936 289.314 474.71 290.514C471.583 289.078 467.229 288.865 462.394 288.865H454.373C444.887 288.865 437.187 296.72 437.187 305.698C434.712 313.598 437.772 319.019 443.397 321.409C446.456 322.711 450.272 323.115 454.373 322.531H462.394C465.178 323.048 467.836 322.599 470.208 321.409C474.39 319.322 477.678 314.945 479.133 309.57C480.176 309.929 481.264 310.131 482.375 310.131C483.109 310.131 483.853 310.041 484.587 309.873C487.291 309.222 489.536 307.46 490.911 304.924C492.263 302.421 492.607 299.458 491.885 296.563V296.563ZM483.155 302.747C482.364 304.217 481.207 305.339 479.809 306.023C479.763 306.472 479.694 306.921 479.626 307.359C480.141 307.561 479.901 307.55 479.465 307.449C478.709 307.269 477.369 306.787 478.32 306.562C478.835 306.439 479.339 306.259 479.809 306.023C480.061 303.757 480.015 301.377 479.58 298.965C479.58 295.531 478.526 293.264 476.727 291.76C477.586 291.031 478.583 290.514 479.694 290.245C480.256 290.11 480.817 290.043 481.367 290.043C482.066 290.043 482.731 290.088 483.349 290.2C486.019 290.66 487.898 292.198 488.746 295.598C489.33 297.955 484.243 300.738 483.155 302.747V302.747Z" fill="#F2F2F2"/>
</g>
<path id="Vector_29" d="M342.979 317.679C342.979 308.702 335.279 300.846 325.793 300.846H317.772C313.212 300.846 309.076 301.037 306.006 302.26C305.811 302.339 305.639 302.417 305.456 302.496C304.218 301.295 302.706 300.453 301.01 300.049C297.951 299.32 294.835 300.162 292.406 302.092C290.458 303.629 288.945 305.862 288.281 308.545C287.559 311.44 287.903 314.402 289.255 316.905C289.954 318.196 290.87 319.273 291.97 320.115C293.024 320.934 294.25 321.529 295.579 321.854C296.313 322.022 297.057 322.112 297.791 322.112C298.902 322.112 299.99 321.91 301.033 321.551C301.984 325.086 303.737 328.183 306.006 330.484C309.156 333.682 313.304 335.343 317.772 334.513H325.793C337.456 336.162 346.794 329.867 342.979 317.679L342.979 317.679ZM300.586 310.946C300.151 313.359 300.105 315.738 300.357 318.005C300.827 318.24 301.331 318.42 301.847 318.543C303.347 318.903 299.143 319.879 300.54 319.34C300.472 318.903 300.403 318.454 300.357 318.005C299.395 317.533 298.558 316.86 297.871 316.007C297.55 315.614 297.264 315.188 297.012 314.728C295.923 312.719 290.836 309.936 291.42 307.579C292.005 305.256 293.07 303.797 294.537 302.967C294.537 302.956 294.548 302.956 294.548 302.956C295.717 302.294 297.138 302.024 298.787 302.024C299.349 302.024 299.91 302.092 300.472 302.226C301.583 302.496 302.58 303.012 303.439 303.741C301.64 305.245 300.586 307.512 300.586 310.946H300.586Z" fill="#F2F2F2"/>
<path id="Vector_30" d="M92.0419 420.55H356.817C359.094 420.55 360.94 425.672 360.94 431.989L326.568 457.367C326.568 463.685 324.722 468.806 322.445 468.806H92.0419C89.765 468.806 87.9191 463.685 87.9191 457.367V431.989C87.9191 425.672 89.765 420.55 92.0419 420.55Z" fill="#F2F2F2"/>
<g id="Group_6">
<path id="Vector_31" d="M201.491 306.974L206.156 337.368L188.801 342.401L185.036 310.094C184.283 309.429 183.614 308.648 183.064 307.753C180.074 302.884 181.68 296.563 186.651 293.634C191.621 290.705 198.075 292.278 201.065 297.147C202.972 300.252 203.003 303.944 201.491 306.974H201.491Z" fill="#FFB6B6"/>
<path id="Vector_32" d="M211.114 350.053C212.352 363.777 204.022 357.773 197.469 371.173C194.982 376.256 187.604 375.504 184.865 380.15C180.695 387.22 184.533 418.968 177.132 422.873C169.696 426.801 166.201 415.444 160.324 409.597C154.572 403.874 147.835 406.119 142.92 399.733C137.97 393.325 132.367 387.613 127.418 381.239C127.315 381.116 127.223 380.981 127.131 380.857C124.863 363.373 117.473 342.781 120.566 333.489C124.657 332.03 129.068 331.053 132.516 331.087C138.864 331.166 136.183 334.555 141.636 337.226C146.219 339.47 151.879 351.208 156.302 353.823C159.453 355.675 167.232 370.387 171.3 369.119C177.957 367.043 184.51 337.024 182.952 331.525C181.634 326.935 175.058 321.189 174.875 316.565C174.863 316.397 174.863 316.218 174.875 316.049C181.485 318.372 193.768 312.447 200.539 314.59C205.374 316.128 211.08 321.907 211.412 326.834C211.756 331.884 210.656 344.991 211.114 350.053V350.053Z" fill="#6C63FF"/>
</g>
<path id="Vector_33" d="M289.037 298.316C287.834 296.959 286.035 296.33 284.225 296.644L231.074 305.947C226.273 306.8 221.266 305.97 217.016 303.624L209.133 299.281L194.376 291.145L191.511 289.574L179.504 282.953L175.734 280.877C174.291 280.08 172.584 280.002 171.071 280.675C169.559 281.337 168.493 282.639 168.15 284.221L164.426 301.268L164.151 302.491L162.054 312.108L156.807 336.068L155.982 339.872L155.615 341.522L152.934 353.81L152.43 356.077L145.315 388.633L144.696 391.449C144.352 393.032 144.765 394.625 145.842 395.815C145.956 395.961 146.094 396.095 146.243 396.23C147.606 397.464 149.474 397.88 151.238 397.352L152.728 396.903L163.945 393.57L189.644 385.939L195.143 384.301L201.903 382.292C202.614 382.079 203.335 381.978 204.057 381.978C205.948 381.978 207.804 382.674 209.202 383.987L242.428 414.937L243.895 416.306C245.178 417.507 246.977 417.967 248.695 417.541C250.173 417.182 251.376 416.239 252.041 414.937C252.167 414.713 252.27 414.477 252.35 414.23L261.642 386.848L263.235 382.157L268.414 366.895L268.826 365.683C291.552 379.9 287.868 335.015 290.034 303.22C290.618 301.515 290.24 299.674 289.037 298.316L289.037 298.316Z" fill="#F2F2F2"/>
<path id="Vector_34" d="M282.163 303.927C280.96 302.57 279.161 301.941 277.35 302.255L224.199 311.559C219.399 312.411 214.392 311.581 210.141 309.236L202.258 304.893L187.501 296.756L184.637 295.185L172.629 288.564L168.86 286.488C167.416 285.691 165.709 285.613 164.197 286.286C162.684 286.948 161.619 288.25 161.275 289.832L157.551 306.879L157.276 308.102L155.18 317.72L149.932 341.679L149.107 345.483L148.741 347.133L146.06 359.421L145.555 361.688L138.44 394.244L137.822 397.06C137.478 398.643 137.89 400.236 138.967 401.426C139.082 401.572 139.219 401.706 139.368 401.841C140.732 403.076 142.599 403.491 144.364 402.963L145.853 402.514L157.07 399.181L182.769 391.55L188.269 389.912L195.029 387.903C195.739 387.69 196.461 387.589 197.183 387.589C199.073 387.589 200.929 388.285 202.327 389.598L235.554 420.549L237.02 421.918C238.303 423.118 240.102 423.578 241.821 423.152C243.299 422.793 244.502 421.85 245.166 420.549C245.293 420.324 245.396 420.088 245.476 419.842L254.768 392.459L256.36 387.768L261.539 372.506L261.952 371.294C284.677 385.511 280.993 340.626 283.159 308.832C283.744 307.126 283.366 305.285 282.163 303.927L282.163 303.927Z" fill="#E6E6E6"/>
<path id="Vector_35" d="M132.154 402.27L133.242 447.392L198.535 445.631L185.341 395.69L132.154 402.27Z" fill="#FFB6B6"/>
<path id="Vector_36" d="M209.522 557.461C210.312 553.803 207.769 556.765 206.05 555.217L205.913 555.082C204.045 553.051 201.696 552.142 201.731 549.617C201.765 547.092 197.274 549.347 194.753 546.879C194.215 546.351 192.679 545.33 190.583 544.051C184.063 540.078 172.182 533.592 168.619 531.65C167.954 531.291 167.576 531.089 167.576 531.089C167.576 531.089 167.565 531.28 167.53 531.65C167.335 533.996 166.533 543.501 165.56 555.217C165.502 555.957 165.445 556.709 165.376 557.461H123.167C123.213 556.698 123.236 555.946 123.247 555.217C123.316 551.715 123.018 548.45 122.193 545.723C120.704 540.819 119.375 536.15 118.332 531.65C114.517 515.254 114.562 501.047 125.172 485.572C127.131 482.721 127.509 473.643 127.509 473.643C127.509 473.643 131.119 477.144 132.047 478.019C131.817 477.784 131.359 477.335 130.603 476.594C126.318 472.397 126.455 471.129 128.655 468.806C129.045 468.402 129.492 467.964 129.996 467.47C133.353 464.182 129.996 467.47 128.311 465.54C126.639 463.599 130.832 458.414 130.832 458.414L129.239 450.603L128.311 446.07L133.181 445.239L146.219 443.006L195.303 434.612L196.231 436.935L204.549 457.662C206.6 458.818 208.743 463.363 210.668 468.806C214.265 478.962 217.084 492.215 217.084 492.215L271.323 555.217L271.85 555.834C272.309 556.361 272.733 556.911 273.134 557.461H209.522H209.522Z" fill="#2F2E41"/>
<path id="Vector_37" d="M137.89 537.261H129.87V557.461H137.89V537.261Z" fill="#E6E6E6"/>
<path id="Vector_38" d="M89.1957 531.65H178.564C185.208 531.65 190.594 536.926 190.594 543.433C190.594 549.941 185.208 555.217 178.564 555.217H89.1957C82.5516 555.217 77.1654 549.941 77.1654 543.433C77.1654 536.926 82.5516 531.65 89.1957 531.65Z" fill="#F2F2F2"/>
<path id="Vector_39" d="M82.3212 555.217H82.3212C76.9426 555.217 72.5824 550.946 72.5824 545.678V432.334C72.5824 427.065 76.9426 422.795 82.3212 422.795H82.3212C87.6998 422.795 92.0601 427.065 92.0601 432.334C121.639 454.505 109.617 498.631 92.0601 545.678C92.0601 550.946 87.6998 555.217 82.3212 555.217V555.217Z" fill="#F2F2F2"/>
<path id="Vector_40" d="M199.76 430.65C197.872 444.214 184.648 432.266 171.346 430.011C158.972 427.923 144.26 449.066 131.015 450.85C122.457 452.006 129.205 445.048 132.161 414.939C132.539 411.068 127.716 385.402 127.131 380.857C124.863 363.373 117.473 342.781 120.566 333.489C121.093 331.873 121.941 330.604 123.19 329.752C129.068 325.723 131.691 322.48 135.644 316.689C138.99 311.774 141.419 307.98 147.652 307.588C153.529 307.217 160.186 308.474 165.857 309.686C172.056 311.022 165.021 310.55 166.533 313.939C167.267 315.6 168.527 321.728 169.971 324.039C174.353 322.807 179.067 324.188 182.041 327.572C185.502 331.508 188.619 335.124 190.766 340.738C193.997 349.132 185.851 364.069 189.448 372.295C192.691 379.724 184.762 395.559 188.303 401.473C192.794 409.003 203.197 405.962 199.76 430.65V430.65H199.76Z" fill="#6C63FF"/>
<path id="Vector_41" d="M226.29 320.607L226.001 322.832L264.71 327.665L265 325.439L226.29 320.607Z" fill="white"/>
<path id="Vector_42" d="M224.178 331.636L223.888 333.862L262.598 338.695L262.888 336.469L224.178 331.636Z" fill="white"/>
<path id="Vector_43" d="M223.032 340.614L222.743 342.84L261.452 347.672L261.742 345.446L223.032 340.614Z" fill="white"/>
<path id="Vector_44" d="M166.709 308.676C179.881 308.676 190.559 298.217 190.559 285.315C190.559 272.413 179.881 261.955 166.709 261.955C153.537 261.955 142.859 272.413 142.859 285.315C142.859 298.217 153.537 308.676 166.709 308.676Z" fill="#FFB6B6"/>
<g id="Group_7">
<path id="frontpalm" d="M281.151 308.728L255.287 320.229L259.933 335.617L286.836 322.505C287.723 322.738 288.658 322.85 289.623 322.818C294.871 322.644 298.981 318.336 298.804 313.196C298.626 308.056 294.228 304.03 288.98 304.204C285.633 304.315 282.755 306.111 281.151 308.728L281.151 308.728V308.728Z" fill="#FFB6B6"/>
<path id="fronthand" d="M258.954 317.226L248.985 322.059L231.17 325.482L207.019 335.194L203.356 336.662L186.454 333.517L174.75 331.326L170.893 330.609L156.854 327.987L154.063 327.816C153.298 327.602 152.473 327.399 151.568 327.217C148.872 326.66 145.642 326.239 142.331 326.075C141.335 326.027 140.324 326 139.322 326.008C130.757 326.029 122.542 328.011 122.34 333.996C122.182 338.89 123.179 343.567 125.097 347.784C125.389 348.425 125.694 349.044 126.025 349.662C130.084 357.227 137.211 363.037 145.879 365.4C147.77 365.912 149.728 366.254 151.743 366.429L152.162 366.389L153.728 366.254L156.301 366.03L161.021 365.613L198.083 362.354L202.513 361.966L206.621 361.599L206.715 361.556C211.959 359.353 226.438 353.27 241.052 346.974C254.447 341.198 260.098 340.487 264.085 338.957C264.877 338.654 265.599 338.327 266.309 337.916C266.945 337.536 278.572 329.765 278.636 329.609C278.846 329.128 278.614 328.11 278.087 326.769C276.59 322.904 272.748 316.484 270.809 313.331L269.926 311.913L258.954 317.226H258.954L258.954 317.226Z" fill="#6C63FF"/>
</g>
<path id="frame1ladki" d="M93.9969 228.648C79.6392 228.648 68 240.048 68 254.111V531.995C68 537.359 69.7071 542.353 72.6174 546.46C75.2755 550.231 78.9533 553.261 83.2499 555.169H83.2843C86.5611 556.639 90.1701 557.458 93.997 557.458H289.839V542.106H95.1427C91.4992 555.214 89.0817 554.832 86.8246 554.125C84.1206 553.295 81.6229 551.993 79.446 550.31C79.423 550.31 79.423 550.298 79.423 550.287C76.5129 548.088 74.1756 545.248 72.583 541.96C71.1164 538.942 70.2915 535.564 70.2915 531.995V348.353C70.2915 283.481 123.983 230.892 190.214 230.892H415.871V228.648H93.9969V228.648V228.648Z" fill="#3F3D56"/>
<path id="hair" d="M193.906 272.797C193.894 275.199 193.883 279.923 191.763 281.113L191.213 280.855C190.847 280.63 190.388 280.282 189.896 279.89C188.383 278.678 186.458 277.005 185.141 276.781C185.072 274.761 185.129 272.741 185.336 270.732C185.393 270.25 185.45 269.767 185.519 269.285C185.324 269.61 185.141 269.935 184.958 270.272C183.869 272.27 182.975 274.379 182.322 276.545C180.145 276.568 177.235 276.276 176.055 278.06C174.348 280.653 176.788 286.174 172.629 288.564C171.747 289.069 170.567 289.44 168.997 289.608C170.647 289.866 172.744 290.652 173.798 292.717C175.975 296.981 177.831 301.919 176.846 306.464C176.697 307.137 176.49 307.799 176.216 308.45C174.543 312.4 170.67 314.936 167.829 318.191C167.771 318.247 167.726 318.303 167.68 318.359C165.491 320.918 164.758 323.016 164.987 325.003C165.4 328.65 169.032 331.904 172.778 336.797C174.165 338.615 170.029 348.053 171.209 350.006C172.412 351.958 173.053 354.427 172.102 356.515C171.083 358.737 168.791 359.724 166.248 360.106C158.984 355.224 152.739 349.007 149.932 341.679C147.503 335.35 147.629 328.212 151.868 320.379C147.801 327.27 146.266 335.552 147.595 343.407C147.629 343.688 147.675 343.957 147.732 344.226C147.939 345.281 148.282 346.235 148.741 347.133C150.791 351.139 155.054 353.788 158.193 357.48C156.875 358.782 154.721 360.768 152.625 362.597C150.837 364.168 149.073 365.605 147.916 366.402C147.136 365.695 146.323 363.955 145.555 361.688C145.246 360.779 144.937 359.78 144.65 358.737C142.851 352.419 141.385 344.271 141.007 341.769C139.964 343.688 139.666 349.108 139.815 354.686C139.838 355.505 139.872 356.324 139.907 357.132C140.239 364.157 131.36 367.613 126.685 362.283C125.722 361.172 124.737 359.926 123.729 358.524C123.603 353.159 124.382 347.773 126.101 342.689C126.146 342.543 126.169 342.476 126.169 342.453C125.94 342.779 123.534 348.637 121.644 353.148C120.67 355.46 119.833 357.413 119.478 358.097C119.833 356.021 120.509 353.462 121.22 350.96C122.835 345.337 124.657 340.052 123.523 341.511C122.365 343.003 121.323 344.597 120.429 346.258C118.642 349.523 117.393 353.081 116.763 356.739C116.706 357.065 116.648 357.39 116.614 357.727C115.571 357.469 114.563 357.11 113.601 356.638C110.564 355.101 108.926 351.88 108.754 348.525C108.479 343.273 110.851 338.514 115.732 339.255C117.588 339.536 118.367 338.458 118.47 336.696C118.722 333.049 116.144 326.45 114.643 322.904C114.002 321.389 113.337 319.818 112.764 318.236C115.938 314.274 117.622 309.157 117.256 304.129C116.167 307.878 114.231 311.379 111.63 314.33C111.068 311.682 111.023 309.034 112.019 306.509C115.354 298.114 122.469 301.672 127.498 294.131C133.376 285.321 131.646 280.72 135.06 270.732C136.527 266.423 139.999 262.809 144.307 261.104C148.615 259.409 154.756 248.625 171.037 260.464C171.3 260.228 171.564 260.004 171.839 259.802C176.456 256.39 182.139 258.567 188.223 259.342C194.662 260.161 192.531 258.96 196.003 264.336C197.309 266.367 193.929 270.396 193.906 272.797V272.797L193.906 272.797Z" fill="#2F2E41"/>
<g id="Group_8">
<path id="whitemessage" d="M333.4 194.499C333.4 194.491 333.397 194.487 333.389 194.487C332.117 193.118 330.421 192.131 328.508 191.716H328.497C327.832 191.57 327.156 191.491 326.446 191.491H267.451C262.238 191.491 257.987 195.655 257.987 200.761V258.544C257.987 263.65 262.238 267.802 267.451 267.802H326.446C331.659 267.802 335.898 263.65 335.898 258.544V200.761C335.898 198.348 334.959 196.148 333.4 194.499V194.499ZM334.787 258.544C334.787 263.055 331.052 266.714 326.446 266.714H267.451C262.845 266.714 259.11 263.055 259.11 258.544V229.411C259.11 229.153 259.11 228.906 259.122 228.648C259.156 227.009 259.294 225.393 259.546 223.8C259.58 223.53 259.637 223.272 259.683 223.003C260.932 216.012 264.197 209.682 268.872 204.655L268.929 204.599C275.804 197.214 285.703 192.58 296.702 192.58H326.446C331.052 192.58 334.787 196.249 334.787 200.761V258.544V258.544Z" fill="#E6E6E6"/>
<g id="message1" filter="url(#filter0_d_2_96)">
<path d="M254.756 229.501C254.756 208.993 273.512 191.053 294.198 187.877C320.382 183.857 344.455 197.481 340.991 220.645C337.956 240.937 347.562 261.185 292.669 261.185C281.539 240.403 254.756 250.01 254.756 229.501Z" fill="#6C63FF"/>
<path d="M254.756 229.501C254.756 208.993 273.512 191.053 294.198 187.877C320.382 183.857 344.455 197.481 340.991 220.645C337.956 240.937 347.562 261.185 292.669 261.185C281.539 240.403 254.756 250.01 254.756 229.501Z" fill="url(#paint0_angular_2_96)" fill-opacity="0.2"/>
</g>
<g id="Group_9">
<path id="Vector_45" d="M308.137 213.387H289.094C288.613 213.387 288.224 213.768 288.224 214.24C288.224 214.711 288.613 215.093 289.094 215.093H308.137C308.618 215.093 309.007 214.711 309.007 214.24C309.007 213.768 308.618 213.387 308.137 213.387Z" fill="white"/>
<path id="Vector_46" d="M308.137 231.578H289.094C288.613 231.578 288.224 231.959 288.224 232.42C288.224 232.891 288.613 233.284 289.094 233.284H308.137C308.618 233.284 309.007 232.891 309.007 232.42C309.007 231.959 308.618 231.578 308.137 231.578Z" fill="white"/>
<path id="Vector_47" d="M318.357 222.488H278.874C278.393 222.488 278.004 222.87 278.004 223.341C278.004 223.812 278.393 224.194 278.874 224.194H318.357C318.838 224.194 319.227 223.812 319.227 223.341C319.227 222.87 318.838 222.488 318.357 222.488Z" fill="white"/>
</g>
</g>
<g id="Group_10">
<path id="Vector_48" d="M126.297 105.382C125.033 105.382 124.006 106.388 124.006 107.626V142.415C124.006 143.653 125.033 144.659 126.297 144.659C127.561 144.659 128.589 143.653 128.589 142.415V107.626C128.589 106.388 127.561 105.382 126.297 105.382Z" fill="#3F3D56"/>
<g id="Group_11">
<path id="orange2" d="M148.755 138.904C156.641 138.904 163.035 132.774 163.035 125.212C163.035 117.65 156.641 111.52 148.755 111.52C140.869 111.52 134.475 117.65 134.475 125.212C134.475 132.774 140.869 138.904 148.755 138.904Z" fill="#FF905F"/>
<path id="Vector_49" d="M263.23 120.528H186.367C183.731 120.528 181.585 118.427 181.585 115.844C181.585 113.261 183.731 111.16 186.367 111.16H263.23C265.866 111.16 268.012 113.261 268.012 115.844C268.012 118.427 265.866 120.528 263.23 120.528V120.528Z" fill="#F2F2F2"/>
<path id="Vector_50" d="M323.213 136.382H186.367C183.731 136.382 181.585 134.28 181.585 131.698C181.585 129.115 183.731 127.013 186.367 127.013H323.213C325.85 127.013 327.995 129.115 327.995 131.698C327.995 134.28 325.85 136.382 323.213 136.382Z" fill="#F2F2F2"/>
</g>
</g>
<g id="Group_12">
<path id="Vector_51" d="M316.168 527.722C314.904 527.722 313.876 528.729 313.876 529.967V564.756C313.876 565.993 314.904 567 316.168 567C317.431 567 318.459 565.993 318.459 564.756V529.967C318.459 528.729 317.431 527.722 316.168 527.722Z" fill="#3F3D56"/>
<g id="Group_13">
<path id="Vector_52" d="M338.625 561.244C346.512 561.244 352.905 555.114 352.905 547.552C352.905 539.991 346.512 533.861 338.625 533.861C330.739 533.861 324.346 539.991 324.346 547.552C324.346 555.114 330.739 561.244 338.625 561.244Z" fill="#6C63FF"/>
<path id="Vector_53" d="M453.1 542.868H376.238C373.601 542.868 371.456 540.767 371.456 538.184C371.456 535.602 373.601 533.5 376.238 533.5H453.1C455.737 533.5 457.882 535.602 457.882 538.184C457.882 540.767 455.737 542.868 453.1 542.868Z" fill="#F2F2F2"/>
<path id="Vector_54" d="M513.084 558.722H376.238C373.601 558.722 371.456 556.621 371.456 554.038C371.456 551.455 373.601 549.354 376.238 549.354H513.084C515.72 549.354 517.866 551.455 517.866 554.038C517.866 556.621 515.72 558.722 513.084 558.722Z" fill="#F2F2F2"/>
</g>
</g>
<g id="Group_14">
<path id="Vector_55" d="M183.709 250.077C186.384 250.077 188.553 247.905 188.553 245.226C188.553 242.547 186.384 240.375 183.709 240.375C181.033 240.375 178.864 242.547 178.864 245.226C178.864 247.905 181.033 250.077 183.709 250.077Z" fill="#3F3D56"/>
<path id="Vector_56" d="M200.444 250.077C203.12 250.077 205.289 247.905 205.289 245.226C205.289 242.547 203.12 240.375 200.444 240.375C197.769 240.375 195.6 242.547 195.6 245.226C195.6 247.905 197.769 250.077 200.444 250.077Z" fill="#3F3D56"/>
<path id="Vector_57" d="M217.18 250.077C219.856 250.077 222.025 247.905 222.025 245.226C222.025 242.547 219.856 240.375 217.18 240.375C214.504 240.375 212.335 242.547 212.335 245.226C212.335 247.905 214.504 250.077 217.18 250.077Z" fill="#3F3D56"/>
</g>
<g id="dotgroup">
<path id="thirddot" d="M519.859 154.361C522.535 154.361 524.704 152.189 524.704 149.51C524.704 146.831 522.535 144.659 519.859 144.659C517.184 144.659 515.015 146.831 515.015 149.51C515.015 152.189 517.184 154.361 519.859 154.361Z" fill="#3F3D56"/>
<path id="seconddot" d="M536.595 154.361C539.271 154.361 541.44 152.189 541.44 149.51C541.44 146.831 539.271 144.659 536.595 144.659C533.919 144.659 531.75 146.831 531.75 149.51C531.75 152.189 533.919 154.361 536.595 154.361Z" fill="#3F3D56"/>
<path id="firstdot" d="M553.331 154.361C556.006 154.361 558.175 152.189 558.175 149.51C558.175 146.831 556.006 144.659 553.331 144.659C550.655 144.659 548.486 146.831 548.486 149.51C548.486 152.189 550.655 154.361 553.331 154.361Z" fill="#3F3D56"/>
</g>
<path id="Vector_58" d="M373.283 346.031C373.091 346.672 373.784 347.211 374.378 346.882C378.522 344.589 383.588 342.352 388.105 341.145C388.828 340.951 388.852 339.96 388.141 339.726L382.154 337.756L405.018 309.559L403.461 308.348L380.598 336.545L377.282 331.278C376.888 330.653 375.907 330.9 375.879 331.634C375.701 336.217 374.624 341.557 373.283 346.031V346.031Z" fill="#3F3D56"/>
<path id="Vector_59" d="M405.751 401.527C406.375 401.795 407.01 401.191 406.754 400.572C404.962 396.253 403.345 391.045 402.7 386.503C402.597 385.775 401.596 385.626 401.268 386.286L398.508 391.85L372.881 366.032L371.456 367.39L397.082 393.207L391.325 395.754C390.642 396.057 390.766 397.041 391.505 397.163C396.123 397.922 401.393 399.652 405.751 401.527V401.527Z" fill="#3F3D56"/>
</g>
<g id="Rectangle 1" style="mix-blend-mode:darken">
<rect x="552" y="494" width="222" height="102" fill="#FFB696" fill-opacity="0.8"/>
</g>
<path id="Vector_60" d="M546.28 61.3837C554.166 61.3837 560.559 55.2537 560.559 47.6919C560.559 40.1301 554.166 34 546.28 34C538.393 34 532 40.1301 532 47.6919C532 55.2537 538.393 61.3837 546.28 61.3837Z" fill="#FF905F"/>
<path id="orangeball" d="M60 235C67.732 235 74 228.508 74 220.5C74 212.492 67.732 206 60 206C52.268 206 46 212.492 46 220.5C46 228.508 52.268 235 60 235Z" fill="#FF905F"/>
</g>
<defs>
<filter id="filter0_d_2_96" x="250.756" y="187.177" width="94.5681" height="82.0074" filterUnits="userSpaceOnUse" color-interpolation-filters="sRGB">
<feFlood flood-opacity="0" result="BackgroundImageFix"/>
<feColorMatrix in="SourceAlpha" type="matrix" values="0 0 0 0 0 0 0 0 0 0 0 0 0 0 0 0 0 0 127 0" result="hardAlpha"/>
<feOffset dy="4"/>
<feGaussianBlur stdDeviation="2"/>
<feComposite in2="hardAlpha" operator="out"/>
<feColorMatrix type="matrix" values="0 0 0 0 0 0 0 0 0 0 0 0 0 0 0 0 0 0 0.25 0"/>
<feBlend mode="normal" in2="BackgroundImageFix" result="effect1_dropShadow_2_96"/>
<feBlend mode="normal" in="SourceGraphic" in2="effect1_dropShadow_2_96" result="shape"/>
</filter>
<radialGradient id="paint0_angular_2_96" cx="0" cy="0" r="1" gradientUnits="userSpaceOnUse" gradientTransform="translate(290.274 217.477) rotate(124.241) scale(36.6526 42.3216)">
<stop stop-color="#000012"/>
<stop offset="0.609591" stop-color="#9C9AF4" stop-opacity="0.551376"/>
<stop offset="1" stop-color="#17171F" stop-opacity="0.4"/>
</radialGradient>
</defs>
</svg>
